<svg width="191" height="165" viewBox="0 0 191 165" fill="none" xmlns="http://www.w3.org/2000/svg">
<circle cx="64" cy="101" r="63.4677" fill="#FF9900" stroke="#FF9900" stroke-width="1.06452"/>
<path fill-rule="evenodd" clip-rule="evenodd" d="M121.677 50.0322C112.271 50.0322 104.645 57.6578 104.645 67.0645C104.645 76.4711 112.271 84.0968 121.677 84.0968C131.084 84.0968 138.71 76.4711 138.71 67.0645C138.71 57.6578 131.084 50.0322 121.677 50.0322ZM102.516 67.0645C102.516 56.482 111.095 47.9032 121.677 47.9032C132.26 47.9032 140.839 56.482 140.839 67.0645C140.839 77.647 132.26 86.2258 121.677 86.2258C111.095 86.2258 102.516 77.647 102.516 67.0645Z" fill="black"/>
<path fill-rule="evenodd" clip-rule="evenodd" d="M122.597 2.13463C119.672 2.13463 116.866 3.29661 114.798 5.36494C112.73 7.43327 111.568 10.2385 111.568 13.1636V14.1918L111.568 14.196C111.559 16.3504 110.921 18.4552 109.731 20.2514C108.542 22.0476 106.853 23.4568 104.873 24.3055C104.74 24.3624 104.597 24.3918 104.452 24.3918H104.188C102.224 25.2098 100.064 25.4442 97.9683 25.0641C95.7965 24.6704 93.7925 23.635 92.2146 22.0915L92.2062 22.0833L91.8433 21.7204C90.819 20.6949 89.6022 19.881 88.2634 19.326C86.9245 18.771 85.4893 18.4853 84.0399 18.4853C82.5906 18.4853 81.1554 18.771 79.8165 19.326C78.4776 19.881 77.2612 20.6945 76.2369 21.72L76.2361 21.7208C75.2107 22.7451 74.3972 23.9615 73.8422 25.3004C73.2871 26.6392 73.0015 28.0744 73.0015 29.5238C73.0015 30.9732 73.2871 32.4083 73.8422 33.7472C74.3972 35.0861 75.2107 36.3025 76.2361 37.3268L76.6077 37.6984C78.1512 39.2763 79.1865 41.2804 79.5803 43.4522C79.9721 45.6129 79.7109 47.8412 78.8306 49.8524C78.0632 51.9194 76.6947 53.7098 74.901 54.9927C73.098 56.2823 70.9489 56.9995 68.7329 57.0514L68.7079 57.0517H68.1636C65.2385 57.0517 62.4333 58.2136 60.3649 60.282C58.2966 62.3503 57.1346 65.1556 57.1346 68.0806C57.1346 71.0057 58.2966 73.8109 60.3649 75.8793C62.4333 77.9476 65.2385 79.1096 68.1636 79.1096H69.196C71.3504 79.1182 73.4552 79.7565 75.2514 80.9461C77.046 82.1346 78.4543 83.8215 79.3032 85.7994C80.1926 87.8173 80.4576 90.0553 80.0642 92.2252C79.6704 94.397 78.635 96.4011 77.0915 97.979L77.0833 97.9874L76.7204 98.3502C75.6949 99.3745 74.881 100.591 74.326 101.93C73.771 103.269 73.4853 104.704 73.4853 106.154C73.4853 107.603 73.771 109.038 74.326 110.377C74.881 111.716 75.6945 112.932 76.72 113.957L76.7208 113.957C77.7451 114.983 78.9615 115.796 80.3004 116.351C81.6392 116.906 83.0744 117.192 84.5238 117.192C85.9732 117.192 87.4083 116.906 88.7472 116.351C90.0861 115.796 91.3025 114.983 92.3268 113.957L92.6984 113.586C94.2763 112.042 96.2804 111.007 98.4522 110.613C100.613 110.221 102.841 110.483 104.852 111.363C106.919 112.13 108.71 113.499 109.993 115.293C111.282 117.096 112 119.245 112.051 121.461L112.052 121.486V122.03C112.052 124.955 113.214 127.76 115.282 129.829C117.35 131.897 120.156 133.059 123.081 133.059C126.006 133.059 128.811 131.897 130.879 129.829C132.948 127.76 134.11 124.955 134.11 122.03V121.002L134.11 120.998C134.118 118.843 134.757 116.738 135.946 114.942C137.134 113.148 138.821 111.739 140.799 110.891C142.817 110.001 145.055 109.736 147.225 110.129C149.397 110.523 151.401 111.559 152.979 113.102L152.987 113.11L153.35 113.473C154.375 114.499 155.591 115.312 156.93 115.868C158.269 116.423 159.704 116.708 161.154 116.708C162.603 116.708 164.038 116.423 165.377 115.868C166.716 115.312 167.932 114.499 168.957 113.474L168.957 113.473C169.983 112.448 170.796 111.232 171.351 109.893C171.906 108.554 172.192 107.119 172.192 105.67C172.192 104.22 171.906 102.785 171.351 101.446C170.796 100.107 169.983 98.8911 168.957 97.8668L168.586 97.4951C167.042 95.9173 166.007 93.9132 165.613 91.7414C165.22 89.5712 165.485 87.3331 166.374 85.315C167.223 83.3373 168.632 81.6506 170.426 80.4622C172.222 79.2727 174.327 78.6343 176.481 78.6257L176.486 78.6257L177.03 78.6257C179.955 78.6257 182.76 77.4637 184.829 75.3954C186.897 73.3271 188.059 70.5218 188.059 67.5968C188.059 64.6717 186.897 61.8665 184.829 59.7981C182.76 57.7298 179.955 56.5678 177.03 56.5678H176.002L175.998 56.5678C173.843 56.5592 171.738 55.9209 169.942 54.7313C168.146 53.5418 166.737 51.853 165.888 49.8728C165.831 49.74 165.802 49.5969 165.802 49.4524V49.1876C164.984 47.2242 164.749 45.0645 165.129 42.9683C165.523 40.7965 166.559 38.7925 168.102 37.2146L168.11 37.2062L168.473 36.8433C169.499 35.819 170.313 34.6022 170.868 33.2634C171.423 31.9245 171.708 30.4893 171.708 29.0399C171.708 27.5906 171.423 26.1554 170.868 24.8165C170.313 23.4776 169.499 22.2612 168.474 21.2369L168.473 21.2361C167.448 20.2107 166.232 19.3972 164.893 18.8422C163.554 18.2871 162.119 18.0015 160.67 18.0015C159.22 18.0015 157.785 18.2871 156.446 18.8422C155.107 19.3972 153.891 20.2107 152.867 21.2361L152.495 21.6077C150.917 23.1512 148.913 24.1865 146.741 24.5803C144.571 24.9737 142.333 24.7087 140.316 23.8194C138.338 22.9705 136.651 21.5622 135.462 19.7676C134.273 17.9714 133.634 15.8665 133.626 13.7122L133.626 13.7079V13.1636C133.626 10.2385 132.464 7.43327 130.395 5.36494C128.327 3.29661 125.522 2.13463 122.597 2.13463ZM113.289 3.85552C115.757 1.38687 119.106 0 122.597 0C126.088 0 129.436 1.38687 131.905 3.85552C134.373 6.32417 135.76 9.67238 135.76 13.1636L135.76 13.7037C135.76 13.7043 135.76 13.705 135.76 13.7056C135.768 15.443 136.283 17.1404 137.242 18.5889C138.202 20.038 139.564 21.1749 141.162 21.8596L141.172 21.8641C142.801 22.5831 144.608 22.7976 146.361 22.4799C148.111 22.1625 149.726 21.3287 150.998 20.0856C151 20.0843 151.001 20.083 151.002 20.0817L151.357 19.7275C151.356 19.7277 151.357 19.7274 151.357 19.7275C152.579 18.5038 154.031 17.5326 155.629 16.8703C157.227 16.2078 158.94 15.8668 160.67 15.8668C162.4 15.8668 164.113 16.2078 165.711 16.8703C167.308 17.5325 168.76 18.5032 169.982 19.7267C171.206 20.9492 172.177 22.401 172.839 23.9991C173.502 25.5971 173.843 27.31 173.843 29.0399C173.843 30.7698 173.502 32.4828 172.839 34.0808C172.177 35.6788 171.206 37.1306 169.982 38.3532L169.628 38.7073C169.627 38.7087 169.625 38.71 169.624 38.7114C168.381 39.9838 167.547 41.5989 167.23 43.3492C166.912 45.1013 167.127 46.9085 167.846 48.5376C167.905 48.6733 167.936 48.8201 167.936 48.9685V49.2268C168.628 50.7403 169.731 52.0312 171.121 52.9516C172.569 53.9109 174.267 54.4259 176.004 54.4332H177.03C180.521 54.4332 183.869 55.8201 186.338 58.2887C188.807 60.7574 190.194 64.1056 190.194 67.5968C190.194 71.088 188.807 74.4362 186.338 76.9048C183.869 79.3735 180.521 80.7604 177.03 80.7604L176.49 80.7603C176.489 80.7603 176.489 80.7604 176.488 80.7604C174.751 80.7677 173.053 81.2826 171.605 82.242C170.156 83.2016 169.019 84.5641 168.334 86.1616L168.329 86.1721C167.61 87.8012 167.396 89.6084 167.714 91.3605C168.031 93.1107 168.865 94.7258 170.108 95.9981C170.109 95.9995 170.11 96.001 170.112 96.0024L170.466 96.3565C170.466 96.3564 170.466 96.3567 170.466 96.3565C171.69 97.579 172.661 99.0311 173.323 100.629C173.986 102.227 174.327 103.94 174.327 105.67C174.327 107.4 173.986 109.113 173.323 110.711C172.661 112.308 171.69 113.76 170.466 114.983C169.244 116.206 167.792 117.177 166.194 117.839C164.596 118.502 162.884 118.843 161.154 118.843C159.424 118.843 157.711 118.502 156.113 117.839C154.515 117.177 153.063 116.206 151.841 114.983C151.841 114.982 151.841 114.983 151.841 114.983L151.486 114.628C151.485 114.627 151.483 114.625 151.482 114.624C150.21 113.381 148.595 112.547 146.844 112.23C145.092 111.912 143.285 112.127 141.656 112.846L141.645 112.85C140.048 113.535 138.685 114.672 137.726 116.121C136.767 117.569 136.252 119.267 136.244 121.004C136.244 121.005 136.244 121.005 136.244 121.006L136.244 122.03C136.244 125.521 134.857 128.869 132.389 131.338C129.92 133.807 126.572 135.194 123.081 135.194C119.589 135.194 116.241 133.807 113.773 131.338C111.304 128.869 109.917 125.521 109.917 122.03V121.498C109.873 119.715 109.294 117.986 108.256 116.534C107.216 115.08 105.762 113.972 104.084 113.355C104.073 113.35 104.061 113.346 104.05 113.342C104.041 113.338 104.031 113.334 104.021 113.329C102.392 112.61 100.585 112.396 98.833 112.714C97.0828 113.031 95.4676 113.865 94.1953 115.108C94.1939 115.109 94.1925 115.11 94.1911 115.112L93.837 115.466C92.6145 116.69 91.1627 117.661 89.5646 118.323C87.9666 118.986 86.2537 119.327 84.5238 119.327C82.7939 119.327 81.0809 118.986 79.4829 118.323C77.8849 117.661 76.4331 116.69 75.2105 115.466C73.987 114.244 73.0164 112.792 72.3541 111.194C71.6917 109.596 71.3507 107.884 71.3507 106.154C71.3507 104.424 71.6917 102.711 72.3541 101.113C73.0165 99.5149 73.9873 98.0632 75.211 96.8408C75.2108 96.8409 75.2111 96.8407 75.211 96.8408L75.5656 96.4863C75.5669 96.4849 75.5682 96.4836 75.5696 96.4822C76.8125 95.2099 77.6464 93.5946 77.9638 91.8444C78.2815 90.0922 78.067 88.2851 77.348 86.656L77.3434 86.6455C76.6587 85.048 75.5219 83.6855 74.0728 82.7258C72.6242 81.7665 70.9269 81.2515 69.1895 81.2442C69.1888 81.2442 69.1882 81.2442 69.1875 81.2442L68.1636 81.2442C64.6724 81.2442 61.3242 79.8573 58.8555 77.3887C56.3869 74.92 55 71.5718 55 68.0806C55 64.5894 56.3869 61.2412 58.8555 58.7726C61.3242 56.3039 64.6724 54.917 68.1636 54.917H68.6951C70.4786 54.8729 72.2079 54.2945 73.6591 53.2565C75.1137 52.2162 76.2216 50.7623 76.8389 49.084C76.8466 49.0629 76.8551 49.042 76.8641 49.0214C77.5831 47.3923 77.7976 45.5852 77.4799 43.833C77.1626 42.0828 76.3287 40.4675 75.0857 39.1952L74.7275 38.837C73.5036 37.6145 72.5327 36.1627 71.8703 34.5646C71.2078 32.9666 70.8668 31.2537 70.8668 29.5238C70.8668 27.7939 71.2078 26.0809 71.8703 24.4829C72.5327 22.8849 73.5036 21.4331 74.7275 20.2105C75.9499 18.987 77.4014 18.0164 78.9991 17.3541C80.5971 16.6917 82.31 16.3507 84.0399 16.3507C85.7698 16.3507 87.4828 16.6917 89.0808 17.3541C90.6786 18.0165 92.1303 18.9873 93.3527 20.211C93.3526 20.2108 93.3529 20.2111 93.3527 20.211L93.7114 20.5697C94.9838 21.8126 96.5989 22.6464 98.3492 22.9638C100.101 23.2815 101.908 23.067 103.538 22.348C103.673 22.2881 103.82 22.2571 103.969 22.2571H104.227C105.74 21.5652 107.031 20.4626 107.952 19.0728C108.911 17.6242 109.426 15.9269 109.433 14.1895V13.1636C109.433 9.67238 110.82 6.32417 113.289 3.85552Z" fill="black"/>
</svg>
